<svg id="visual" viewBox="0 0 1920 1080" width="1920" height="1080" xmlns="http://www.w3.org/2000/svg" xmlns:xlink="http://www.w3.org/1999/xlink" version="1.1"><rect x="0" y="0" width="1920" height="1080" fill="#000000"></rect><defs><linearGradient id="grad1_0" x1="43.8%" y1="0%" x2="100%" y2="100%"><stop offset="14.444444444444446%" stop-color="#000000" stop-opacity="1"></stop><stop offset="85.55555555555554%" stop-color="#000000" stop-opacity="1"></stop></linearGradient></defs><defs><linearGradient id="grad2_0" x1="0%" y1="0%" x2="56.3%" y2="100%"><stop offset="14.444444444444446%" stop-color="#000000" stop-opacity="1"></stop><stop offset="85.55555555555554%" stop-color="#000000" stop-opacity="1"></stop></linearGradient></defs><g transform="translate(1920, 0)"><path d="M0 702C-38.8 687.3 -77.6 672.6 -117 663.8C-156.5 654.9 -196.6 652 -230.5 633.4C-264.5 614.7 -292.2 580.2 -315 545.6C-337.8 511 -355.6 476.2 -376 448.1C-396.4 420.1 -419.4 398.8 -458.9 385C-498.3 371.3 -554.3 365.1 -593.2 342.5C-632.2 319.9 -654.1 281 -659.7 240.1C-665.2 199.2 -654.5 156.5 -658.8 116.2C-663.2 75.8 -682.6 37.9 -702 0L0 0Z" fill="#344E41"></path></g><g transform="translate(0, 1080)"><path d="M0 -702C37.4 -659.5 74.8 -617.1 102.5 -581C130.1 -545 148 -515.4 190.5 -523.4C233 -531.4 300.2 -577.1 318 -550.8C335.8 -524.5 304.2 -426.2 342.6 -408.3C381 -390.4 489.5 -453 537.8 -451.2C586 -449.5 573.9 -383.4 583.7 -337C593.5 -290.6 625.2 -263.9 625.8 -227.8C626.5 -191.6 596.2 -146 603.7 -106.4C611.2 -66.9 656.6 -33.5 702 0L0 0Z" fill="#344E41"></path></g></svg>