<svg id="visual" viewBox="0 0 1920 1080" width="1920" height="1080" xmlns="http://www.w3.org/2000/svg" xmlns:xlink="http://www.w3.org/1999/xlink" version="1.1"><rect x="0" y="0" width="1920" height="1080" fill="#dad7cd"></rect><defs><linearGradient id="grad1_0" x1="43.8%" y1="0%" x2="100%" y2="100%"><stop offset="14.444444444444446%" stop-color="#dad7cd" stop-opacity="1"></stop><stop offset="85.55555555555554%" stop-color="#dad7cd" stop-opacity="1"></stop></linearGradient></defs><defs><linearGradient id="grad2_0" x1="0%" y1="0%" x2="56.3%" y2="100%"><stop offset="14.444444444444446%" stop-color="#dad7cd" stop-opacity="1"></stop><stop offset="85.55555555555554%" stop-color="#dad7cd" stop-opacity="1"></stop></linearGradient></defs><g transform="translate(1920, 0)"><path d="M0 864C-17.4 677.3 -34.9 490.6 -118.2 517.7C-201.4 544.8 -350.5 785.7 -371 770.3C-391.5 754.9 -283.3 483.2 -343.5 430.8C-403.7 378.3 -632.3 545.1 -675.5 538.7C-718.8 532.2 -576.7 352.5 -553.2 266.4C-529.6 180.3 -624.6 187.7 -696.1 158.9C-767.6 130.1 -815.8 65 -864 0L0 0Z" fill="#4a5759"></path></g><g transform="translate(0, 1080)"><path d="M0 -864C51.9 -805.7 103.9 -747.5 170 -744.8C236.1 -742.2 316.4 -795.2 374.9 -778.4C433.3 -761.7 470 -675.1 475.1 -595.8C480.2 -516.4 453.9 -444.4 525.4 -419C596.9 -393.6 766.4 -414.9 762.2 -367.1C758.1 -319.3 580.4 -202.4 568.4 -129.7C556.4 -57 710.2 -28.5 864 0L0 0Z" fill="#4a5759"></path></g></svg>